<svg width="28" height="24" viewBox="0 0 28 24" fill="none" xmlns="http://www.w3.org/2000/svg">
<path d="M28 11.9999C28 15.0945 26.7948 18.0051 24.6073 20.194C22.417 22.3829 19.5078 23.5881 16.4119 23.5881H10.3746V15.3917H15.1523V19.2619H16.0384C20.0442 19.2619 23.3018 16.0029 23.3018 11.9999C23.3018 7.99695 20.0442 4.73799 16.0384 4.73799H15.1523V8.60959H10.3746V0.411758H16.4119C22.803 0.411758 28 5.61021 28 11.9999Z" fill="#991B1B"/>
<path d="M28 11.9999C28 15.0945 26.7948 18.0051 24.6073 20.194C22.417 22.3829 19.5078 23.5881 16.4119 23.5881H10.3746V15.3917H15.1523V19.2619H16.0384C20.0442 19.2619 23.3018 16.0029 23.3018 11.9999C23.3018 7.99695 20.0442 4.73799 16.0384 4.73799H15.1523V8.60959H10.3746V0.411758H16.4119C22.803 0.411758 28 5.61021 28 11.9999Z" fill="#991B1B"/>
<path d="M28 11.9999C28 15.0945 26.7948 18.0051 24.6073 20.194C22.417 22.3829 19.5078 23.5881 16.4119 23.5881H10.3746V15.3917H15.1523V19.2619H16.0384C20.0442 19.2619 23.3018 16.0029 23.3018 11.9999C23.3018 7.99695 20.0442 4.73799 16.0384 4.73799H15.1523V8.60959H10.3746V0.411758H16.4119C22.803 0.411758 28 5.61021 28 11.9999Z" fill="#991B1B"/>
<path d="M15.1537 9.72048V14.2738H4.77767V23.5881H0V0.411758H4.77767V9.72605L9.30454 9.72327L15.1537 9.72048Z" fill="#991B1B"/>
<path d="M15.1537 9.72048V14.2738H4.77767V23.5881H0V0.411758H4.77767V9.72605L9.30454 9.72327L15.1537 9.72048Z" fill="#991B1B"/>
</svg>
